<svg width="750" height="1053" viewBox="0 0 750 1053" fill="none" xmlns="http://www.w3.org/2000/svg">
<path d="M0 53C0 23.7289 23.7289 0 53 0H697C726.271 0 750 23.7289 750 53V1000C750 1029.27 726.271 1053 697 1053H53C23.7289 1053 0 1029.27 0 1000V53Z" fill="white"/>
<path d="M67.7268 37H105.273L134 214H106.281L101.241 178.853V179.359H69.7427L64.7029 214H39L67.7268 37ZM97.9655 155.337L85.618 67.8486H85.1141L73.0186 155.337H97.9655Z" fill="black"/>
<path fill-rule="evenodd" clip-rule="evenodd" d="M86.7307 239.024L86.7457 239C98.8043 246.537 110.832 258.591 116.909 268.666C125.096 282.238 127.388 294.317 126.146 303.252C124.906 312.162 120.112 318.053 114.051 318.919C110.477 319.429 107.73 319.05 105.457 318.13C103.19 317.212 101.433 315.77 99.8218 314.222C99.2621 313.684 98.721 313.136 98.1828 312.591C95.712 310.088 93.3018 307.646 89.4321 306.557C88.4524 320.038 93.9786 327.5 96.7735 329.519L98.027 330.424H75.4345L76.688 329.519C79.4829 327.5 85.009 320.038 84.0294 306.557C80.1597 307.646 77.7499 310.087 75.2791 312.59C74.7408 313.136 74.1994 313.684 73.6397 314.222C72.0285 315.77 70.271 317.212 68.0044 318.13C65.7313 319.05 62.9842 319.429 59.41 318.919C53.3494 318.053 48.5551 312.162 47.3158 303.252C46.0731 294.317 48.3659 282.238 56.5526 268.666C62.6295 258.591 74.6572 246.537 86.7157 239L86.7307 239.024ZM86.7307 240.173C74.9631 247.654 63.3093 259.4 57.4089 269.182C49.3097 282.61 47.1025 294.459 48.3063 303.114C49.5135 311.793 54.112 317.152 59.5515 317.929C62.9773 318.418 65.5427 318.048 67.629 317.203C69.7217 316.355 71.3705 315.015 72.9468 313.501C73.4715 312.997 73.9892 312.471 74.5132 311.939C77.1075 309.303 79.8559 306.511 84.3649 305.437L84.9294 305.303L84.9789 305.881C86.0647 318.548 81.5651 326.3 78.3401 329.424H95.1213C91.8964 326.3 87.3968 318.548 88.4826 305.881L88.5321 305.303L89.0966 305.437C93.6056 306.511 96.354 309.303 98.9483 311.939C99.4723 312.471 99.99 312.997 100.515 313.501C102.091 315.015 103.74 316.355 105.832 317.203C107.919 318.048 110.484 318.418 113.91 317.929C119.349 317.152 123.948 311.793 125.155 303.114C126.359 294.459 124.152 282.61 116.053 269.182C110.152 259.4 98.4984 247.654 86.7307 240.173Z" fill="black"/>
<path d="M86.7307 240.173C74.9631 247.654 63.3093 259.4 57.4089 269.182C49.3097 282.61 47.1025 294.459 48.3063 303.114C49.5135 311.793 54.112 317.152 59.5515 317.929C62.9773 318.418 65.5427 318.048 67.629 317.203C69.7217 316.355 71.3705 315.015 72.9468 313.501C73.4715 312.997 73.9892 312.471 74.5132 311.939C77.1075 309.303 79.8559 306.511 84.3649 305.437L84.9294 305.303L84.9789 305.881C86.0647 318.548 81.5651 326.3 78.3401 329.424H95.1213C91.8964 326.3 87.3968 318.548 88.4826 305.881L88.5321 305.303L89.0966 305.437C93.6056 306.511 96.354 309.303 98.9483 311.939C99.4723 312.471 99.99 312.997 100.515 313.501C102.091 315.015 103.74 316.355 105.832 317.203C107.919 318.048 110.484 318.418 113.91 317.929C119.349 317.152 123.948 311.793 125.155 303.114C126.359 294.459 124.152 282.61 116.053 269.182C110.152 259.4 98.4984 247.654 86.7307 240.173Z" fill="black"/>
<path d="M648.727 1008.42H686.273L715 831.424H687.281L682.241 866.571V866.065H650.743L645.703 831.424H620L648.727 1008.42ZM678.966 890.087L666.618 977.575H666.114L654.019 890.087H678.966Z" fill="black"/>
<path fill-rule="evenodd" clip-rule="evenodd" d="M667.731 806.4L667.746 806.424C679.804 798.887 691.832 786.833 697.909 776.758C706.096 763.185 708.388 751.107 707.146 742.172C705.906 733.262 701.112 727.371 695.051 726.505C691.477 725.994 688.73 726.374 686.457 727.294C684.19 728.212 682.433 729.654 680.822 731.202C680.262 731.74 679.721 732.288 679.183 732.833C676.712 735.336 674.302 737.778 670.432 738.866C669.452 725.386 674.979 717.924 677.773 715.905L679.027 715H656.434L657.688 715.905C660.483 717.924 666.009 725.386 665.029 738.866C661.16 737.778 658.75 735.337 656.279 732.833C655.741 732.288 655.199 731.74 654.64 731.202C653.028 729.654 651.271 728.212 649.004 727.294C646.731 726.374 643.984 725.994 640.41 726.505C634.349 727.371 629.555 733.262 628.316 742.172C627.073 751.107 629.366 763.185 637.553 776.758C643.63 786.833 655.657 798.887 667.716 806.424L667.731 806.4ZM667.731 805.251C655.963 797.769 644.309 786.024 638.409 776.242C630.31 762.814 628.102 750.965 629.306 742.31C630.513 733.631 635.112 728.272 640.551 727.495C643.977 727.005 646.543 727.376 648.629 728.221C650.722 729.069 652.371 730.408 653.947 731.923C654.472 732.427 654.989 732.953 655.513 733.485C658.108 736.121 660.856 738.913 665.365 739.986L665.929 740.121L665.979 739.543C667.065 726.876 662.565 719.124 659.34 716H676.121C672.896 719.124 668.397 726.876 669.483 739.543L669.532 740.121L670.097 739.986C674.606 738.913 677.354 736.121 679.948 733.485C680.472 732.953 680.99 732.427 681.515 731.923C683.091 730.408 684.74 729.069 686.832 728.221C688.919 727.376 691.484 727.005 694.91 727.495C700.349 728.272 704.948 733.631 706.155 742.31C707.359 750.965 705.152 762.814 697.053 776.242C691.152 786.024 679.498 797.769 667.731 805.251Z" fill="black"/>
<path d="M667.731 805.251C655.963 797.769 644.309 786.024 638.409 776.242C630.31 762.814 628.102 750.965 629.306 742.31C630.513 733.631 635.112 728.272 640.551 727.495C643.977 727.005 646.543 727.376 648.629 728.221C650.722 729.069 652.371 730.408 653.947 731.923C654.472 732.427 654.989 732.953 655.513 733.485C658.108 736.121 660.856 738.913 665.365 739.986L665.929 740.121L665.979 739.543C667.065 726.876 662.565 719.124 659.34 716H676.121C672.896 719.124 668.397 726.876 669.483 739.543L669.532 740.121L670.097 739.986C674.606 738.913 677.354 736.121 679.948 733.485C680.472 732.953 680.99 732.427 681.515 731.923C683.091 730.408 684.74 729.069 686.832 728.221C688.919 727.376 691.484 727.005 694.91 727.495C700.349 728.272 704.948 733.631 706.155 742.31C707.359 750.965 705.152 762.814 697.053 776.242C691.152 786.024 679.498 797.769 667.731 805.251Z" fill="black"/>
<path fill-rule="evenodd" clip-rule="evenodd" d="M374.5 369.083L374.552 369C416.284 395.05 457.909 436.714 478.94 471.537C507.273 518.45 515.208 560.2 510.907 591.082C506.618 621.879 490.026 642.241 469.051 645.234C456.682 646.999 447.175 645.688 439.308 642.506C431.464 639.332 425.382 634.35 419.806 628.999C417.869 627.141 415.996 625.246 414.133 623.361C405.582 614.709 397.241 606.269 383.849 602.507C380.458 649.103 399.583 674.894 409.256 681.871L413.594 685H335.406L339.744 681.871C349.417 674.894 368.542 649.103 365.151 602.507C351.759 606.269 343.419 614.708 334.868 623.36C333.005 625.245 331.132 627.14 329.194 628.999C323.618 634.35 317.536 639.332 309.692 642.506C301.825 645.688 292.318 646.999 279.949 645.234C258.974 642.241 242.382 621.879 238.093 591.082C233.792 560.2 241.727 518.45 270.06 471.537C291.091 436.714 332.716 395.05 374.448 369L374.5 369.083ZM374.5 373.053C333.775 398.914 293.443 439.511 273.023 473.322C244.994 519.734 237.355 560.691 241.521 590.605C245.699 620.604 261.613 639.126 280.438 641.812C292.294 643.504 301.173 642.222 308.393 639.302C315.635 636.372 321.341 631.742 326.797 626.507C328.612 624.764 330.404 622.947 332.218 621.107C341.196 611.997 350.708 602.347 366.312 598.636L368.266 598.172L368.437 600.17C372.195 643.952 356.623 670.747 345.462 681.544H403.538C392.377 670.747 376.805 643.952 380.563 600.17L380.734 598.172L382.688 598.636C398.292 602.347 407.804 611.997 416.782 621.107C418.596 622.947 420.388 624.764 422.203 626.507C427.659 631.742 433.365 636.372 440.607 639.302C447.827 642.222 456.706 643.504 468.562 641.812C487.387 639.126 503.301 620.604 507.479 590.605C511.645 560.691 504.006 519.734 475.977 473.322C455.557 439.511 415.225 398.914 374.5 373.053Z" fill="black"/>
<path d="M374.5 373.053C333.775 398.914 293.443 439.511 273.023 473.322C244.994 519.734 237.355 560.691 241.521 590.605C245.699 620.604 261.613 639.126 280.438 641.812C292.294 643.504 301.173 642.222 308.393 639.302C315.635 636.372 321.341 631.742 326.797 626.507C328.612 624.764 330.404 622.947 332.218 621.107C341.196 611.997 350.708 602.347 366.312 598.636L368.266 598.172L368.437 600.17C372.195 643.952 356.623 670.747 345.462 681.544H403.538C392.377 670.747 376.805 643.952 380.563 600.17L380.734 598.172L382.688 598.636C398.292 602.347 407.804 611.997 416.782 621.107C418.596 622.947 420.388 624.764 422.203 626.507C427.659 631.742 433.365 636.372 440.607 639.302C447.827 642.222 456.706 643.504 468.562 641.812C487.387 639.126 503.301 620.604 507.479 590.605C511.645 560.691 504.006 519.734 475.977 473.322C455.557 439.511 415.225 398.914 374.5 373.053Z" fill="black"/>
</svg>
