<svg width="240" height="336" viewBox="0 0 240 336" fill="none" xmlns="http://www.w3.org/2000/svg">
<rect width="240" height="336" rx="11" fill="white"/>
<rect width="240" height="336" rx="11" fill="white"/>
<path d="M198 283H218.807V286.28C218.807 289.821 216.607 293.772 212.17 298.133L205.495 304.693C203.854 306.296 203.034 307.899 203.034 309.502C203.034 311.179 203.556 312.446 204.637 313.266C205.681 314.086 207.136 314.496 209 314.496C212.17 314.496 214.481 313.043 215.861 310.098L220 312.297C217.427 316.099 213.773 318 209.037 318C206.017 318 203.407 317.217 201.281 315.615C199.156 314.012 198.075 311.962 198.075 309.502C198.075 307.079 199.342 304.619 201.915 302.121L208.478 295.673C212.058 292.132 213.885 289.001 213.885 286.317H198.075V283H198Z" fill="#222222"/>
<path d="M217.546 259.538C219.695 262.16 220.204 265.82 217.848 268.216C215.301 270.806 211.425 270.056 209.073 267.664C206.721 270.056 202.845 270.806 200.298 268.216C197.942 265.82 198.451 262.16 200.599 259.538C202.919 256.706 206.095 254.272 209.073 252.162C212.05 254.272 215.227 256.706 217.546 259.538Z" fill="#F24E1E"/>
<path d="M42 53H21.1931V49.7199C21.1931 46.1789 23.3931 42.2279 27.8304 37.8669L34.505 31.3068C36.1457 29.704 36.9661 28.1012 36.9661 26.4984C36.9661 24.8211 36.4441 23.5537 35.3627 22.7337C34.3186 21.9137 32.8644 21.5037 30.9999 21.5037C27.8304 21.5037 25.5186 22.9574 24.1389 25.902L20 23.7029C22.5729 19.901 26.227 18 30.9626 18C33.983 18 36.5932 18.7827 38.7186 20.3855C40.844 21.9882 41.9254 24.0383 41.9254 26.4984C41.9254 28.9212 40.6576 31.3812 38.0847 33.8785L31.522 40.3269C27.9424 43.868 26.1152 46.999 26.1152 49.6827H41.9254V53H42Z" fill="#222222"/>
<path d="M22.4534 76.4623C20.3051 73.8397 19.7958 70.1803 22.1522 67.7838C24.6991 65.1936 28.5753 65.9442 30.9271 68.336C33.2789 65.9442 37.155 65.1936 39.7019 67.7838C42.0584 70.1803 41.5491 73.8397 39.4007 76.4623C37.0808 79.2943 33.9047 81.7276 30.9271 83.8377C27.9494 81.7276 24.7733 79.2943 22.4534 76.4623Z" fill="#F24E1E"/>
<path d="M87.1287 170.624C78.8659 160.537 76.9069 146.462 85.9702 137.245C95.7658 127.282 110.674 130.169 119.72 139.369C128.765 130.17 143.673 127.282 153.469 137.245C162.532 146.462 160.573 160.537 152.311 170.624C143.388 181.516 131.172 190.875 119.72 198.991C108.267 190.875 96.0513 181.516 87.1287 170.624Z" fill="#F24E1E"/>
</svg>
